<?xml version="1.0" encoding="utf-8"?>
<!-- Generator: Adobe Illustrator 16.0.0, SVG Export Plug-In . SVG Version: 6.00 Build 0)  -->
<!DOCTYPE svg PUBLIC "-//W3C//DTD SVG 1.0//EN" "http://www.w3.org/TR/2001/REC-SVG-20010904/DTD/svg10.dtd">
<svg version="1.0" id="Layer_1" xmlns="http://www.w3.org/2000/svg" xmlns:xlink="http://www.w3.org/1999/xlink" x="0px" y="0px"
	 width="100px" height="100px" viewBox="0 0 100 100" enable-background="new 0 0 100 100" xml:space="preserve">
<path fill="none" stroke="#000000" stroke-width="2" stroke-linecap="round" stroke-linejoin="round" stroke-miterlimit="10" d="
	M26.877,52.501c-3.452,0-6.253-2.797-6.253-6.252c0-0.844,0.172-1.652,0.479-2.388c1.02-2.472,1.561-5.14,1.561-7.854v-7.666
	c0-3.225,2.618-5.839,5.843-5.839l0,0c0-4.143,3.358-7.5,7.5-7.5c1.046,0,2.042,0.217,2.948,0.604
	C41.191,12.229,45.022,10,49.377,10c6.053,0,11.104,4.306,12.25,10.025l0.248-0.024v-0.002c2.76,0,4.999,2.241,4.999,5l0,0
	c2.763,0.002,4.999,2.239,4.999,5.002L71.876,30c0,2.763-2.239,5-5.002,5v-5H26.877V52.501z"/>
<path fill="none" stroke="#000000" stroke-width="2" stroke-linecap="round" stroke-linejoin="round" stroke-miterlimit="10" d="
	M66.878,84.997c0,2.764-2.239,5.003-5.003,5.003H31.876c-2.764,0-4.999-2.239-4.999-5.003V30.002h40V84.997z"/>
<path fill="none" stroke="#000000" stroke-width="2" stroke-linecap="round" stroke-linejoin="round" stroke-miterlimit="10" d="
	M74.378,39.999h-7.5v35.002l11.033-11.034c0.906-0.903,1.464-2.153,1.464-3.535V45C79.375,42.238,77.136,39.999,74.378,39.999z"/>
<path fill="none" stroke="#000000" stroke-width="2" stroke-linecap="round" stroke-linejoin="round" stroke-miterlimit="10" d="
	M26.877,84.997h40H26.877z"/>
<path fill="none" stroke="#000000" stroke-linecap="round" stroke-linejoin="round" stroke-miterlimit="10" d="M46.876,30.002
	v44.999V30.002z"/>
<path fill="none" stroke="#000000" stroke-linecap="round" stroke-linejoin="round" stroke-miterlimit="10" d="M36.878,30.002
	v44.999V30.002z"/>
<path fill="none" stroke="#000000" stroke-linecap="round" stroke-linejoin="round" stroke-miterlimit="10" d="M56.877,30.002
	v44.999V30.002z"/>
<path fill="none" stroke="#000000" stroke-linecap="round" stroke-linejoin="round" stroke-miterlimit="10" d="M26.877,75.001
	c0,2.759,2.239,4.998,4.999,4.998c2.763,0,5.001-2.239,5.001-4.998c0,2.759,2.236,4.998,4.999,4.998s4.999-2.239,4.999-4.998h0.003
	c0,2.759,2.236,4.998,4.999,4.998s4.999-2.239,4.999-4.998c0,2.759,2.239,4.998,4.998,4.998c2.764,0,5.003-2.239,5.003-4.998
	c0,2.759-2.239,4.998-5.003,4.998c-2.759,0-4.998-2.239-4.998-4.998c0,2.759-2.236,4.998-4.999,4.998s-4.999-2.239-4.999-4.998
	h-0.003c0,2.759-2.236,4.998-4.999,4.998s-4.999-2.239-4.999-4.998c0,2.759-2.239,4.998-5.001,4.998
	C29.117,79.999,26.877,77.76,26.877,75.001z"/>
<path fill="none" stroke="#000000" stroke-linecap="round" stroke-linejoin="round" stroke-miterlimit="10" d="M26.877,70.002
	l6.249-6.253L26.877,70.002z"/>
<path fill="none" stroke="#000000" stroke-linecap="round" stroke-linejoin="round" stroke-miterlimit="10" d="M26.877,75.001
	l3.748-3.752L26.877,75.001z"/>
<path fill="none" stroke="#000000" stroke-width="2" stroke-linecap="round" stroke-linejoin="round" stroke-miterlimit="10" d="
	M32.042,23.966c-0.906-0.906-2.156-1.464-3.534-1.464C29.885,22.502,31.135,23.06,32.042,23.966z"/>
<path fill="none" stroke="#000000" stroke-width="2" stroke-linecap="round" stroke-linejoin="round" stroke-miterlimit="10" d="
	M36.878,22.5c0-2.549,0.765-4.917,2.077-6.894C37.643,17.583,36.878,19.951,36.878,22.5z"/>
<path fill="none" stroke="#000000" stroke-width="2" stroke-linecap="round" stroke-linejoin="round" stroke-miterlimit="10" d="
	M49.377,25c0-2.069,1.678-3.748,3.748-3.748s3.745,1.674,3.752,3.741c0.003-2.758,2.242-4.992,4.998-4.992v-0.002v0.002
	c-2.756,0-4.995,2.234-4.998,4.992c-0.007-2.067-1.682-3.741-3.752-3.741S49.377,22.931,49.377,25z"/>
<path fill="none" stroke="#000000" stroke-width="2" stroke-linecap="round" stroke-linejoin="round" stroke-miterlimit="10" d="
	M63.34,26.464c0.975-0.975,2.253-1.462,3.534-1.464C65.593,25.001,64.314,25.489,63.34,26.464z"/>
<path fill="none" stroke="#000000" stroke-linecap="round" stroke-linejoin="round" stroke-miterlimit="10" d="M66.878,43.75h7.5
	c0.688,0,1.25,0.558,1.25,1.249v15.432c0,0.406-0.165,0.771-0.431,1.037l0,0l-8.319,8.319V43.75z"/>
</svg>
