<?xml version="1.0" encoding="utf-8"?>
<!-- Generator: Adobe Illustrator 16.0.0, SVG Export Plug-In . SVG Version: 6.00 Build 0)  -->
<!DOCTYPE svg PUBLIC "-//W3C//DTD SVG 1.0//EN" "http://www.w3.org/TR/2001/REC-SVG-20010904/DTD/svg10.dtd">
<svg version="1.0" id="Layer_1" xmlns="http://www.w3.org/2000/svg" xmlns:xlink="http://www.w3.org/1999/xlink" x="0px" y="0px"
	 width="100px" height="100px" viewBox="0 0 100 100" enable-background="new 0 0 100 100" xml:space="preserve">
<path fill="none" stroke="#000000" stroke-linecap="round" stroke-linejoin="round" stroke-miterlimit="10" d="M24.998,40.001
	c-2.76,0-5,2.236-5,4.999c0,2.764,2.24,5,5,5h50.004c2.76,0,5-2.236,5-5c0-2.762-2.24-4.999-5-4.999H24.998z"/>
<path fill="none" stroke="#000000" stroke-width="2" stroke-linecap="round" stroke-linejoin="round" stroke-miterlimit="10" d="
	M83.334,33.333C83.334,20.445,68.407,9.999,50,9.999c-18.411,0-33.333,10.446-33.333,23.334l0,0c0,3.683,2.984,6.668,6.666,6.668
	h53.334C80.349,40.001,83.334,37.015,83.334,33.333z"/>
<path fill="none" stroke="#000000" stroke-linecap="round" stroke-linejoin="round" stroke-miterlimit="10" d="M76.667,56.665
	c1.843,0,3.335-1.492,3.335-3.33c0-1.843-1.492-3.335-3.335-3.335H23.333c-1.843,0-3.335,1.492-3.335,3.331
	c0,1.842,1.492,3.334,3.335,3.334H76.667z"/>
<path fill="none" stroke="#000000" stroke-linecap="round" stroke-linejoin="round" stroke-miterlimit="10" d="M56.665,50L50,56.665
	L56.665,50z"/>
<path fill="none" stroke="#000000" stroke-linecap="round" stroke-linejoin="round" stroke-miterlimit="10" d="M50,50l-6.67,6.665
	L50,50z"/>
<path fill="none" stroke="#000000" stroke-linecap="round" stroke-linejoin="round" stroke-miterlimit="10" d="M43.333,50
	l-6.669,6.665L43.333,50z"/>
<path fill="none" stroke="#000000" stroke-linecap="round" stroke-linejoin="round" stroke-miterlimit="10" d="M36.668,50
	l-6.669,6.665L36.668,50z"/>
<path fill="none" stroke="#000000" stroke-linecap="round" stroke-linejoin="round" stroke-miterlimit="10" d="M29.999,50
	l-6.666,6.665L29.999,50z"/>
<path fill="none" stroke="#000000" stroke-linecap="round" stroke-linejoin="round" stroke-miterlimit="10" d="M63.335,50
	l-6.67,6.665L63.335,50z"/>
<path fill="none" stroke="#000000" stroke-linecap="round" stroke-linejoin="round" stroke-miterlimit="10" d="M70.002,50
	l-6.667,6.665L70.002,50z"/>
<path fill="none" stroke="#000000" stroke-linecap="round" stroke-linejoin="round" stroke-miterlimit="10" d="M76.667,50
	l-6.665,6.665L76.667,50z"/>
<path fill="none" stroke="#000000" stroke-linecap="round" stroke-linejoin="round" stroke-miterlimit="10" d="M49.165,14.847h1.67
	H49.165z"/>
<path fill="none" stroke="#000000" stroke-linecap="round" stroke-linejoin="round" stroke-miterlimit="10" d="M57.252,19.966h1.67
	H57.252z"/>
<path fill="none" stroke="#000000" stroke-linecap="round" stroke-linejoin="round" stroke-miterlimit="10" d="M39.999,20.555h1.67
	H39.999z"/>
<path fill="none" stroke="#000000" stroke-linecap="round" stroke-linejoin="round" stroke-miterlimit="10" d="M45.457,19.131
	v-1.666V19.131z"/>
<path fill="none" stroke="#000000" stroke-linecap="round" stroke-linejoin="round" stroke-miterlimit="10" d="M67.21,20.799v-1.667
	V20.799z"/>
<path fill="none" stroke="#000000" stroke-linecap="round" stroke-linejoin="round" stroke-miterlimit="10" d="M33.333,20.799
	v-1.667V20.799z"/>
<path fill="none" stroke="#000000" stroke-linecap="round" stroke-linejoin="round" stroke-miterlimit="10" d="M52.603,19.966
	l-1.178-1.181L52.603,19.966z"/>
<path fill="none" stroke="#000000" stroke-linecap="round" stroke-linejoin="round" stroke-miterlimit="10" d="M63.335,18.055
	l-1.181-1.179L63.335,18.055z"/>
<path fill="none" stroke="#000000" stroke-linecap="round" stroke-linejoin="round" stroke-miterlimit="10" d="M72.175,21.388
	l-1.181-1.177L72.175,21.388z"/>
<path fill="none" stroke="#000000" stroke-linecap="round" stroke-linejoin="round" stroke-miterlimit="10" d="M37.255,18.055
	l-1.182-1.179L37.255,18.055z"/>
<path fill="none" stroke="#000000" stroke-linecap="round" stroke-linejoin="round" stroke-miterlimit="10" d="M42.633,14.847
	l-1.181,1.182L42.633,14.847z"/>
<path fill="none" stroke="#000000" stroke-linecap="round" stroke-linejoin="round" stroke-miterlimit="10" d="M29.455,19.966
	l-1.177,1.179L29.455,19.966z"/>
<path fill="none" stroke="#000000" stroke-linecap="round" stroke-linejoin="round" stroke-miterlimit="10" d="M57.256,15.438
	l-1.181,1.181L57.256,15.438z"/>
<path fill="none" stroke="#000000" stroke-linecap="round" stroke-linejoin="round" stroke-miterlimit="10" d="M63.335,21.667
	l-1.181,1.181L63.335,21.667z"/>
<path fill="none" stroke="#000000" stroke-linecap="round" stroke-linejoin="round" stroke-miterlimit="10" d="M48.665,21.667
	l-1.181,1.181L48.665,21.667z"/>
<path fill="none" stroke="#000000" stroke-linecap="round" stroke-linejoin="round" stroke-miterlimit="10" d="M79.806,43.684
	c-3.54,0.1-3.634,2.651-7.316,2.651c-3.756,0-3.756-2.67-7.513-2.67c-3.747,0-3.747,2.67-7.5,2.67c-3.748,0-3.748-2.67-7.497-2.67
	c-3.748,0-3.748,2.67-7.497,2.67c-3.748,0-3.748-2.67-7.488-2.67c-3.749,0-3.749,2.67-7.497,2.67c-3.677,0-3.768-2.551-7.304-2.651
	c3.536,0.1,3.627,2.651,7.304,2.651c3.749,0,3.749-2.67,7.497-2.67c3.741,0,3.741,2.67,7.488,2.67c3.749,0,3.749-2.67,7.497-2.67
	c3.749,0,3.749,2.67,7.497,2.67c3.753,0,3.753-2.67,7.5-2.67c3.757,0,3.757,2.67,7.513,2.67
	C76.172,46.335,76.266,43.784,79.806,43.684z"/>
<rect x="23.333" y="56.665" fill="none" stroke="#000000" stroke-linecap="round" stroke-linejoin="round" stroke-miterlimit="10" width="26.667" height="3.335"/>
<path fill="none" stroke="#000000" stroke-linecap="round" stroke-linejoin="round" stroke-miterlimit="10" d="M76.667,60h-6.662
	c-0.003,0.914-0.374,1.753-0.977,2.355c-0.605,0.599-1.44,0.977-2.358,0.977h-0.003c0-1.838-1.492-3.332-3.332-3.332H50H23.333
	c-1.843,0-3.335,1.494-3.335,3.332c0,1.843,1.492,3.335,3.335,3.335h53.334c1.843,0,3.335-1.492,3.335-3.332
	C80.002,61.494,78.51,60,76.667,60z"/>
<path fill="none" stroke="#000000" stroke-linecap="round" stroke-linejoin="round" stroke-miterlimit="10" d="M50,56.665V60h13.335
	c1.84,0,3.332,1.494,3.332,3.332h0.003c0.918,0,1.753-0.378,2.358-0.977c0.603-0.603,0.974-1.441,0.977-2.355h6.662v-3.335H50z"/>
<rect x="50" y="66.667" fill="none" stroke="#000000" stroke-linecap="round" stroke-linejoin="round" stroke-miterlimit="10" width="26.667" height="3.33"/>
<rect x="23.333" y="76.667" fill="none" stroke="#000000" stroke-linecap="round" stroke-linejoin="round" stroke-miterlimit="10" width="53.334" height="3.332"/>
<path fill="none" stroke="#000000" stroke-linecap="round" stroke-linejoin="round" stroke-miterlimit="10" d="M76.667,69.997H50
	H36.664c-1.838,0-3.331,1.497-3.331,3.335h-0.004c-0.917,0-1.752-0.377-2.359-0.976c-0.602-0.603-0.972-1.441-0.976-2.359h-6.662
	l0,0c-1.843,0-3.335,1.497-3.335,3.335c0,1.843,1.492,3.335,3.335,3.335h53.334c1.843,0,3.335-1.492,3.335-3.33
	C80.002,71.494,78.51,69.997,76.667,69.997z"/>
<path fill="none" stroke="#000000" stroke-linecap="round" stroke-linejoin="round" stroke-miterlimit="10" d="M50,66.667v3.33
	H36.664c-1.838,0-3.331,1.497-3.331,3.335h-0.004c-0.917,0-1.752-0.377-2.359-0.976c-0.602-0.603-0.972-1.441-0.976-2.359h-6.662
	v-3.33H50z"/>
<path fill="none" stroke="#000000" stroke-linecap="round" stroke-linejoin="round" stroke-miterlimit="10" d="M19.998,63.335H60
	H19.998z"/>
<path fill="none" stroke="#000000" stroke-linecap="round" stroke-linejoin="round" stroke-miterlimit="10" d="M39.999,73.332
	h40.003H39.999z"/>
<path fill="none" stroke="#000000" stroke-width="2" stroke-linecap="round" stroke-linejoin="round" stroke-miterlimit="10" d="
	M83.334,83.334c0,3.677-2.985,6.665-6.667,6.665H23.333c-3.682,0-6.666-2.988-6.666-6.665c0-1.84,1.492-3.335,3.331-3.335h60.004
	C81.841,79.999,83.334,81.494,83.334,83.334z"/>
</svg>
