<?xml version="1.0" encoding="utf-8"?>
<!-- Generator: Adobe Illustrator 16.0.0, SVG Export Plug-In . SVG Version: 6.00 Build 0)  -->
<!DOCTYPE svg PUBLIC "-//W3C//DTD SVG 1.0//EN" "http://www.w3.org/TR/2001/REC-SVG-20010904/DTD/svg10.dtd">
<svg version="1.0" id="Layer_1" xmlns="http://www.w3.org/2000/svg" xmlns:xlink="http://www.w3.org/1999/xlink" x="0px" y="0px"
	 width="100px" height="100px" viewBox="0 0 100 100" enable-background="new 0 0 100 100" xml:space="preserve">
<path fill="none" stroke="#000000" stroke-width="2" stroke-linecap="round" stroke-linejoin="round" stroke-miterlimit="10" d="
	M65.092,78.932c0-3.06,2.478-5.538,5.538-5.538v0.004C81.326,73.396,90,64.723,90,54.023c0-10.088-7.713-18.366-17.564-19.28
	c0.912-1.331,1.447-2.939,1.443-4.673l0,0c-0.003-3.428-2.082-6.37-5.049-7.637c-0.914,0.59-1.887,1.119-2.932,1.552l0,0
	c-2.308,0.956-4.318,2.334-5.979,4.003c-1.187,1.182-2.182,2.519-2.995,3.954c-0.169,0.469-0.39,0.908-0.668,1.308
	c-0.114,0.24-0.24,0.473-0.342,0.719l0.004-0.004c-0.921,2.225-2.276,4.26-4.001,5.983c-1.661,1.667-3.673,3.044-5.982,4.001
	c-2.312,0.957-4.322,2.334-5.982,4c-1.728,1.726-3.08,3.762-4.001,5.98c-0.571,1.377-1.326,2.671-2.214,3.874
	c-0.227,2.486-1.291,4.907-3.194,6.811l0.003-0.002c-2.006,2.004-3.246,4.771-3.246,7.828c0,6.115,4.954,11.072,11.07,11.074
	l-0.003,0.002c2.833-0.002,5.668,1.083,7.827,3.237c2.004,2.007,4.769,3.247,7.828,3.246C60.138,90.001,65.092,85.042,65.092,78.932
	z"/>
<path fill="none" stroke="#000000" stroke-width="2" stroke-linecap="round" stroke-linejoin="round" stroke-miterlimit="10" d="
	M61.898,10L61.898,10c-1.66,1.667-3.671,3.044-5.979,4.003v0c-2.312,0.954-4.322,2.333-5.982,4c-1.728,1.726-3.08,3.762-4.001,5.982
	c-0.921,2.221-2.269,4.259-4.001,5.978c-1.66,1.668-3.671,3.046-5.979,4.005l-0.004-0.001c-2.309,0.958-4.319,2.335-5.979,4.002
	c-1.731,1.725-3.083,3.759-4,5.979c-0.925,2.222-2.273,4.259-4.005,5.98c-1.657,1.667-3.671,3.044-5.979,4.002
	c-2.313,0.956-4.322,2.337-5.982,4.001L10,57.939c2.727,4.079,6.148,7.419,9.986,9.979c1.664-1.668,3.674-3.047,5.982-4.003
	l0.004-0.001c2.308-0.959,4.319-2.339,5.979-4.003c1.728-1.724,3.08-3.759,4.001-5.979c0.921-2.22,2.273-4.255,4.001-5.98
	c1.66-1.666,3.671-3.045,5.982-4.001c2.309-0.958,4.322-2.334,5.982-4.002c1.725-1.722,3.08-3.757,4.001-5.984v0.004
	c0.917-2.22,2.27-4.257,4.001-5.98c1.66-1.668,3.667-3.045,5.979-4.002c2.313-0.958,4.326-2.339,5.986-4.004l0.003-0.003
	C69.158,15.899,65.74,12.558,61.898,10z"/>
<path fill="none" stroke="#000000" stroke-width="2" stroke-linecap="round" stroke-linejoin="round" stroke-miterlimit="10" d="
	M70.63,65.092c-6.115,0-11.073-4.958-11.073-11.068c0-6.116,4.958-11.07,11.073-11.07c6.112,0,11.069,4.956,11.069,11.07
	C81.699,60.134,76.742,65.094,70.63,65.092z"/>
<path fill="none" stroke="#000000" stroke-linecap="round" stroke-linejoin="round" stroke-miterlimit="10" d="M72.07,60.386
	c2.717,0,4.922-2.205,4.922-4.919C76.992,58.181,74.787,60.386,72.07,60.386z"/>
<path fill="none" stroke="#000000" stroke-linecap="round" stroke-linejoin="round" stroke-miterlimit="10" d="M19.319,57.258
	c2.308-0.954,4.322-2.332,5.982-3.999c1.729-1.721,3.077-3.76,3.998-5.978c0.924-2.221,2.273-4.257,4.004-5.981
	c-1.731,1.724-3.081,3.761-4.004,5.981c-0.921,2.218-2.27,4.257-3.998,5.978C23.641,54.926,21.627,56.304,19.319,57.258z"/>
<path fill="none" stroke="#000000" stroke-linecap="round" stroke-linejoin="round" stroke-miterlimit="10" d="M49.262,27.315
	c0.925-2.22,2.277-4.256,4.005-5.981c1.657-1.666,3.671-3.043,5.979-4.001l0.004,0.001c2.309-0.959,4.319-2.337,5.979-4.003
	c-1.659,1.666-3.67,3.044-5.979,4.003l-0.004-0.001c-2.308,0.958-4.321,2.335-5.979,4.001
	C51.539,23.059,50.187,25.095,49.262,27.315z"/>
<path fill="none" stroke="#000000" stroke-linecap="round" stroke-linejoin="round" stroke-miterlimit="10" d="M62.566,20.66
	c-2.309,0.955-4.319,2.334-5.979,4c-1.729,1.721-3.08,3.758-4.001,5.978c-0.922,2.219-2.273,4.257-4.001,5.98
	c1.728-1.723,3.08-3.761,4.001-5.98c0.921-2.22,2.272-4.257,4.001-5.978C58.247,22.994,60.258,21.614,62.566,20.66z"/>
<path fill="none" stroke="#000000" stroke-linecap="round" stroke-linejoin="round" stroke-miterlimit="10" d="M32.626,50.604
	c-0.925,2.219-2.277,4.256-4.005,5.98c-1.66,1.665-3.671,3.043-5.979,4.002l-0.004-0.002c-2.309,0.959-4.319,2.337-5.979,4.002
	c1.66-1.665,3.67-3.043,5.979-4.002l0.004,0.002c2.308-0.959,4.319-2.337,5.979-4.002C30.349,54.859,31.701,52.822,32.626,50.604z"
	/>
</svg>
