<?xml version="1.0" encoding="utf-8"?>
<!-- Generator: Adobe Illustrator 16.0.0, SVG Export Plug-In . SVG Version: 6.00 Build 0)  -->
<!DOCTYPE svg PUBLIC "-//W3C//DTD SVG 1.0//EN" "http://www.w3.org/TR/2001/REC-SVG-20010904/DTD/svg10.dtd">
<svg version="1.0" id="Layer_1" xmlns="http://www.w3.org/2000/svg" xmlns:xlink="http://www.w3.org/1999/xlink" x="0px" y="0px"
	 width="100px" height="100px" viewBox="0 0 100 100" enable-background="new 0 0 100 100" xml:space="preserve">
<path fill="none" stroke="#000000" stroke-width="2" stroke-linecap="round" stroke-linejoin="round" stroke-miterlimit="10" d="
	M43.139,10L10,90l80-33.139C81.52,36.389,65.227,19.15,43.139,10z"/>
<path fill="none" stroke="#000000" stroke-linecap="round" stroke-linejoin="round" stroke-miterlimit="10" d="M49.474,46.309
	c-0.335,0.816-0.835,1.584-1.499,2.251l-0.003-0.003c-0.664,0.664-1.164,1.431-1.499,2.252c-0.355,0.846-0.53,1.749-0.53,2.651
	c0,0.901-0.176,1.804-0.53,2.65c-0.336,0.817-0.836,1.585-1.5,2.253l-0.003-0.004c-0.664,0.668-1.164,1.436-1.499,2.252
	c-0.354,0.847-0.534,1.746-0.53,2.651c-0.004,0.903-0.179,1.805-0.53,2.65c-0.336,0.817-0.839,1.586-1.503,2.25
	c-0.664,0.667-1.163,1.436-1.502,2.251v0.005c1.532,1.022,3.203,1.689,4.904,2.028c0.335-0.82,0.838-1.589,1.502-2.253
	c0.668-0.664,1.167-1.431,1.503-2.251c0.351-0.844,0.525-1.746,0.525-2.648c0.004-0.902,0.18-1.805,0.529-2.65
	c0.339-0.821,0.839-1.589,1.503-2.253s1.167-1.433,1.503-2.253c0.35-0.842,0.53-1.745,0.526-2.651h0.004
	c0-0.901,0.174-1.804,0.528-2.649c0.337-0.817,0.836-1.586,1.499-2.25c0.664-0.665,1.163-1.434,1.504-2.252
	C52.842,47.311,51.18,46.644,49.474,46.309z"/>
<path fill="none" stroke="#000000" stroke-width="2" stroke-linecap="round" stroke-linejoin="round" stroke-miterlimit="10" d="
	M40.546,16.251c1.917,0.792,2.656,4.111,4.472,5.032c1.846,0.938,4.956-0.419,6.701,0.645c1.762,1.077,1.971,4.469,3.622,5.668
	c1.675,1.212,4.964,0.361,6.519,1.689c1.566,1.339,1.243,4.721,2.688,6.167c1.459,1.46,4.838,1.136,6.166,2.694
	c1.338,1.567,0.483,4.857,1.688,6.517c1.203,1.665,4.599,1.877,5.669,3.627c1.069,1.753-0.283,4.868,0.648,6.698
	c0.933,1.83,4.244,2.565,5.03,4.464c-0.786-1.898-4.098-2.634-5.03-4.464c-0.932-1.83,0.421-4.945-0.648-6.698
	c-1.07-1.75-4.466-1.962-5.669-3.627c-1.205-1.66-0.351-4.949-1.688-6.517c-1.328-1.559-4.707-1.234-6.166-2.694
	c-1.445-1.447-1.122-4.829-2.688-6.167c-1.555-1.328-4.844-0.477-6.519-1.689c-1.651-1.199-1.86-4.591-3.622-5.668
	c-1.745-1.064-4.854,0.293-6.701-0.645C43.202,20.363,42.463,17.043,40.546,16.251z"/>
<path fill="none" stroke="#000000" stroke-linecap="round" stroke-linejoin="round" stroke-miterlimit="10" d="M71.238,59.382
	c-4.229-4.229-11.083-4.229-15.308-0.004c-3.368,3.368-4.043,8.397-2.049,12.443l19.946-8.259
	C73.308,62.038,72.453,60.598,71.238,59.382z"/>
<path fill="none" stroke="#000000" stroke-linecap="round" stroke-linejoin="round" stroke-miterlimit="10" d="M69.326,61.296
	c-3.176-3.175-8.313-3.175-11.482-0.005c-2.575,2.573-3.021,6.422-1.425,9.482l14.876-6.159
	C70.919,63.402,70.284,62.253,69.326,61.296z"/>
<path fill="none" stroke="#000000" stroke-linecap="round" stroke-linejoin="round" stroke-miterlimit="10" d="M36.795,47.9
	c-2.215-2.215-5.15-3.258-8.051-3.155l-7.522,18.161c0.09,0.101,0.171,0.201,0.269,0.299c4.225,4.224,11.077,4.224,15.305,0
	C41.02,58.979,41.023,52.126,36.795,47.9z"/>
<path fill="none" stroke="#000000" stroke-linecap="round" stroke-linejoin="round" stroke-miterlimit="10" d="M34.881,49.814
	c-1.987-1.99-4.75-2.73-7.313-2.227L22.4,60.064c0.288,0.433,0.62,0.847,0.999,1.227c3.17,3.171,8.313,3.171,11.482,0
	C38.055,58.121,38.052,52.983,34.881,49.814z"/>
<path fill="none" stroke="#000000" stroke-linecap="round" stroke-linejoin="round" stroke-miterlimit="10" d="M30.529,75.326
	c-0.525-1.274-1.305-2.471-2.346-3.508c-1.036-1.04-2.234-1.82-3.509-2.35c-1.037-0.429-2.223,0.063-2.651,1.1
	c-0.429,1.033,0.063,2.22,1.096,2.651l-0.004,0.005c0.18,0.073,0.343,0.183,0.519,0.271l-3.107,3.105
	c-0.791,0.791-0.791,2.077,0,2.868c0.794,0.794,2.081,0.791,2.871,0l3.103-3.106c0.09,0.175,0.202,0.339,0.276,0.519h0.004
	c0.429,1.033,1.615,1.524,2.651,1.097C30.466,77.549,30.958,76.363,30.529,75.326z"/>
<path fill="none" stroke="#000000" stroke-linecap="round" stroke-linejoin="round" stroke-miterlimit="10" d="M48.277,37.374
	l-3.107-3.103c0.176-0.089,0.339-0.202,0.519-0.276v-0.004c1.033-0.429,1.525-1.614,1.096-2.649c-0.429-1.035-1.615-1.527-2.651-1.1
	v0.002c-1.279,0.526-2.473,1.305-3.51,2.342c-1.041,1.04-1.82,2.237-2.349,3.515c-0.429,1.035,0.063,2.22,1.096,2.651
	c1.036,0.427,2.222-0.063,2.651-1.098l0.003,0.003c0.08-0.178,0.188-0.342,0.276-0.518l3.107,3.105c0.791,0.791,2.077,0.791,2.868,0
	C49.071,39.451,49.068,38.166,48.277,37.374z"/>
<path fill="none" stroke="#000000" stroke-linecap="round" stroke-linejoin="round" stroke-miterlimit="10" d="M66.324,41.96
	c0,0,0,0,0.002,0.004l0,0L66.324,41.96z M66.326,50.249v-0.002c0.531-1.277,0.825-2.672,0.825-4.139
	c0-1.469-0.299-2.868-0.825-4.142c-0.427-1.04-1.613-1.53-2.651-1.103c-1.036,0.432-1.528,1.617-1.095,2.653h-0.009
	c0.074,0.18,0.112,0.373,0.172,0.561l-4.39-0.002c-1.118,0-2.032,0.91-2.032,2.03c0.005,1.121,0.909,2.028,2.032,2.028h4.39
	c-0.06,0.186-0.098,0.38-0.172,0.56l0.004,0.003c-0.429,1.033,0.063,2.219,1.1,2.648C64.709,51.771,65.899,51.281,66.326,50.249z"/>
<path fill="none" stroke="#000000" stroke-linecap="round" stroke-linejoin="round" stroke-miterlimit="10" d="M41.464,24.449v2.708
	V24.449z"/>
<path fill="none" stroke="#000000" stroke-linecap="round" stroke-linejoin="round" stroke-miterlimit="10" d="M34.754,41.895h2.705
	H34.754z"/>
<path fill="none" stroke="#000000" stroke-linecap="round" stroke-linejoin="round" stroke-miterlimit="10" d="M31.846,69.736
	l2.708,0.005L31.846,69.736z"/>
<path fill="none" stroke="#000000" stroke-linecap="round" stroke-linejoin="round" stroke-miterlimit="10" d="M71.682,51.962v2.703
	V51.962z"/>
<path fill="none" stroke="#000000" stroke-linecap="round" stroke-linejoin="round" stroke-miterlimit="10" d="M42.68,44.489v2.705
	V44.489z"/>
<path fill="none" stroke="#000000" stroke-linecap="round" stroke-linejoin="round" stroke-miterlimit="10" d="M51.321,31.602
	l1.911,1.913L51.321,31.602z"/>
<path fill="none" stroke="#000000" stroke-linecap="round" stroke-linejoin="round" stroke-miterlimit="10" d="M33.976,73.298
	l1.913,1.913L33.976,73.298z"/>
<path fill="none" stroke="#000000" stroke-linecap="round" stroke-linejoin="round" stroke-miterlimit="10" d="M54.018,39.708h2.706
	H54.018z"/>
<path fill="none" stroke="#000000" stroke-linecap="round" stroke-linejoin="round" stroke-miterlimit="10" d="M55.848,53.337h2.707
	H55.848z"/>
<path fill="none" stroke="#000000" stroke-linecap="round" stroke-linejoin="round" stroke-miterlimit="10" d="M16.228,83.773
	l1.913-1.913L16.228,83.773z"/>
</svg>
